<?xml version="1.0" encoding="UTF-8" standalone="no"?>
<!-- Created with Inkscape (http://www.inkscape.org/) -->

<svg
   width="100"
   height="100"
   viewBox="0 0 26.458333 26.458333"
   version="1.1"
   id="svg1"
   xml:space="preserve"
   inkscape:version="1.4 (86a8ad7, 2024-10-11)"
   sodipodi:docname="pos.svg"
   inkscape:export-filename="pos.png"
   inkscape:export-xdpi="96"
   inkscape:export-ydpi="96"
   xmlns:inkscape="http://www.inkscape.org/namespaces/inkscape"
   xmlns:sodipodi="http://sodipodi.sourceforge.net/DTD/sodipodi-0.dtd"
   xmlns="http://www.w3.org/2000/svg"
   xmlns:svg="http://www.w3.org/2000/svg"><sodipodi:namedview
     id="namedview1"
     pagecolor="#ffffff"
     bordercolor="#cccccc"
     borderopacity="1"
     inkscape:showpageshadow="0"
     inkscape:pageopacity="1"
     inkscape:pagecheckerboard="0"
     inkscape:deskcolor="#d1d1d1"
     inkscape:document-units="mm"
     showguides="false"
     showgrid="true"
     inkscape:zoom="4.2381568"
     inkscape:cx="27.960268"
     inkscape:cy="75.622497"
     inkscape:window-width="1920"
     inkscape:window-height="1053"
     inkscape:window-x="-9"
     inkscape:window-y="-9"
     inkscape:window-maximized="1"
     inkscape:current-layer="layer1"><inkscape:grid
       id="grid2"
       units="mm"
       originx="0"
       originy="0"
       spacingx="0.26458333"
       spacingy="0.26458333"
       empcolor="#0099e5"
       empopacity="0.30196078"
       color="#0099e5"
       opacity="0.14901961"
       empspacing="5"
       enabled="true"
       visible="true" /></sodipodi:namedview><defs
     id="defs1" /><g
     inkscape:label="图层 1"
     inkscape:groupmode="layer"
     id="layer1"><path
       style="fill:#00ffbd;fill-opacity:1;stroke-width:1.1963"
       d="M 12.930859,25.913977 C 12.148424,24.004367 10.618945,21.896154 8.9933858,20.486619 8.4832055,20.044236 9.0524822,19.794292 9.943458,20.069482 11.776583,20.635668 13.17819,18.854035 12.756961,16.493136 12.452935,14.789132 10.17065,13.335342 7.2575345,12.990062 2.9465306,12.479097 1.2570259,9.8544027 2.4779456,5.5648324 2.6397855,4.9962259 3.0295253,3.9715566 3.0685947,4.0119508 c 0.010814,0.01119 0.068327,0.3841872 0.1277984,0.828896 0.3801839,2.8428727 1.4250283,4.8136799 3.1793958,5.9970422 0.4408287,0.29735 2.521423,1.51584 2.5883236,1.51584 0.084995,0 2.0804515,1.170934 2.4787495,1.45453 0.614182,0.437312 1.164602,1.028462 1.497895,1.60874 0.305136,0.531254 0.267389,0.529796 0.549333,0.02123 0.474986,-0.856775 1.505156,-1.726504 3.011169,-2.542206 0.363988,-0.197146 0.914932,-0.495279 1.224321,-0.662517 0.309389,-0.167238 0.592308,-0.325829 0.628706,-0.352425 0.03639,-0.02659 0.200194,-0.123929 0.363987,-0.216297 1.187053,-0.669404 1.681075,-1.011376 2.205192,-1.526476 1.391718,-1.3677762 2.164947,-3.2262152 2.397386,-5.7620701 0.04615,-0.5035756 0.09451,-0.4563031 0.406243,0.3972318 1.664508,4.5573888 0.04714,7.6731323 -4.247755,8.1829783 -4.314306,0.512151 -6.665569,2.817064 -5.67173,5.559928 0.489407,1.350699 1.417338,1.892128 2.66056,1.55238 0.994148,-0.271681 1.514914,-0.02574 0.959605,0.453201 -1.57775,1.360753 -3.188762,3.585689 -3.942955,5.44553 -0.268737,0.66271 -0.26016,0.66354 -0.55396,-0.05351 z M 9.6165157,19.291175 C 9.2882583,19.191541 8.9826913,18.844136 8.8989106,18.475317 8.8594177,18.30146 8.8695745,18.294876 9.2931561,18.219775 10.573467,17.992774 11.175504,17.448574 11.172353,16.521113 11.167345,15.047198 9.9742813,14.62431 8.2433756,15.482923 3.0169723,18.075469 -0.84487749,15.478084 0.15957897,10.045961 0.28352663,9.3756495 0.31847206,9.343386 0.48799564,9.7427496 1.6189224,12.406992 3.6769332,13.810888 6.7397765,14.007477 c 2.1807253,0.139971 3.0760772,0.286884 3.7114425,0.608987 2.025013,1.026596 1.260087,5.310526 -0.8347033,4.674711 z m 6.4470263,-0.03504 c -1.460321,-0.457887 -1.741617,-3.403019 -0.422617,-4.424757 0.614423,-0.475951 1.56812,-0.677528 3.754761,-0.793621 3.256902,-0.172914 4.900606,-1.191853 6.379934,-3.954949 0.367385,-0.6862037 0.420171,-0.667324 0.562069,0.201037 0.864272,5.289016 -3.023395,7.73915 -8.19098,5.162226 -1.569624,-0.782726 -2.707516,-0.435699 -2.895628,0.88309 -0.135837,0.952312 0.571862,1.653984 1.906932,1.890694 0.470484,0.08342 0.480229,0.09529 0.34409,0.41924 -0.239828,0.570679 -0.808496,0.814597 -1.438561,0.61704 z M 10.644369,11.977684 C 6.1827637,10.455411 3.8022,7.0416533 5.0097184,3.8975251 5.6006178,2.358945 6.7010066,1.1286274 8.4108101,0.09484761 8.7118308,-0.0871552 8.716756,-0.04029136 8.4609333,0.57178871 6.7716335,4.6136015 7.9010529,8.8147151 11.570883,12.139903 c 0.127396,0.115437 0.216738,0.209982 0.198539,0.210114 -0.0182,1.3e-4 -0.524473,-0.167419 -1.125053,-0.372333 z m 4.036952,0.321078 c 0,-0.02791 0.0819,-0.100335 0.181994,-0.160969 3.249329,-1.968068 4.732744,-7.5027761 3.107008,-11.5924287 -0.281086,-0.70709029 -0.306129,-0.70124727 0.552901,-0.12899429 2.691496,1.79297029 3.677951,4.21425279 2.814334,6.90786509 -0.718277,2.2403013 -2.442792,3.6614609 -5.729723,4.7218249 -0.418585,0.135034 -0.79829,0.25855 -0.843789,0.274478 -0.04551,0.01593 -0.08272,0.0062 -0.08272,-0.02178 z"
       id="path2" /></g></svg>
